<svg width="64" height="64" viewBox="0 0 64 64" xmlns="http://www.w3.org/2000/svg">
  <defs>
    <linearGradient id="labsx-gradient" x1="0%" y1="0%" x2="100%" y2="100%">
      <stop offset="0%" stop-color="#4F46E5" />
      <stop offset="100%" stop-color="#00C9A7" />
    </linearGradient>
  </defs>
  <rect x="4" y="4" width="56" height="56" rx="16" fill="#0E0E12" />
  <rect x="12" y="12" width="40" height="40" rx="12" fill="url(#labsx-gradient)" opacity="0.8" />
  <path
    d="M28.5 24H22V41H26.5V35.4H28.5C33.3 35.4 36.5 32.8 36.5 29C36.5 25.2 33.3 24 28.5 24ZM28.2 31.7H26.5V27.7H28.2C30 27.7 31 28.3 31 29.6C31 30.9 30 31.7 28.2 31.7ZM42 24H37.3L32.6 41H37.2L38 38.1H43.2L44.1 41H48.7L42 24ZM38.9 34.5L40.6 28.6L42.3 34.5H38.9Z"
    fill="#F9FAFB"
  />
</svg>
